<svg width="23" height="22" viewBox="0 0 23 22" fill="none" xmlns="http://www.w3.org/2000/svg">
<path d="M20.6721 8.41256C20.6144 8.24274 20.5083 8.09353 20.3668 7.98335C20.2253 7.87316 20.0547 7.80681 19.8759 7.79251L14.6468 7.377L12.3839 2.36798C12.3119 2.20665 12.1947 2.06963 12.0464 1.97344C11.8982 1.87726 11.7253 1.82602 11.5486 1.82593C11.3719 1.82583 11.199 1.87687 11.0507 1.9729C10.9023 2.06892 10.785 2.20582 10.7127 2.36707L8.44992 7.377L3.22077 7.79251C3.04508 7.80642 2.87712 7.87066 2.73698 7.97754C2.59684 8.08442 2.49047 8.2294 2.43057 8.39516C2.37067 8.56091 2.3598 8.74041 2.39925 8.91218C2.4387 9.08395 2.52679 9.24072 2.65301 9.36373L6.51731 13.1308L5.15063 19.0488C5.10914 19.2279 5.12244 19.4154 5.18881 19.5869C5.25518 19.7584 5.37156 19.9059 5.52285 20.0105C5.67414 20.115 5.85334 20.1716 6.03722 20.173C6.22109 20.1744 6.40114 20.1205 6.554 20.0183L11.5483 16.6888L16.5427 20.0183C16.6989 20.1221 16.8832 20.1755 17.0707 20.1713C17.2582 20.1672 17.4399 20.1058 17.5914 19.9953C17.743 19.8848 17.8571 19.7306 17.9183 19.5533C17.9796 19.3761 17.9851 19.1843 17.9341 19.0039L16.2565 13.1336L20.4171 9.38941C20.6895 9.14359 20.7895 8.76019 20.6721 8.41256Z" fill="#F3CD03"></path>
</svg>
