<svg width="127" height="19" viewBox="0 0 127 19" fill="none" xmlns="http://www.w3.org/2000/svg">
<path d="M0.0640001 1.224H3.808V8.112L10.144 1.224H14.776L8.104 8.64C8.68 9.44 9.744 10.936 11.296 13.128C12.848 15.304 14.008 16.928 14.776 18H10.408L5.488 11.376L3.808 13.248V18H0.0640001V1.224ZM32.2271 7.44L27.6911 16.608H25.4591L20.9471 7.44V18H17.2031V1.224H22.2671L26.5871 10.44L30.9311 1.224H35.9711V18H32.2271V7.44ZM50.8095 18H47.4255V16.44C46.4975 17.608 45.3455 18.192 43.9695 18.192C42.6095 18.192 41.4655 17.8 40.5375 17.016C39.6095 16.216 39.1455 15.16 39.1455 13.848C39.1455 12.52 39.6255 11.528 40.5855 10.872C41.5455 10.216 42.8575 9.888 44.5215 9.888H47.2095V9.816C47.2095 8.44 46.4815 7.752 45.0255 7.752C44.4015 7.752 43.7375 7.88 43.0335 8.136C42.3455 8.376 41.7615 8.68 41.2815 9.048L39.6735 6.72C41.3695 5.488 43.3055 4.872 45.4815 4.872C47.0495 4.872 48.3295 5.264 49.3215 6.048C50.3135 6.832 50.8095 8.072 50.8095 9.768V18ZM47.1855 13.08V12.456H44.9295C43.4895 12.456 42.7695 12.904 42.7695 13.8C42.7695 14.264 42.9375 14.624 43.2735 14.88C43.6255 15.12 44.1215 15.24 44.7615 15.24C45.4015 15.24 45.9615 15.048 46.4415 14.664C46.9375 14.264 47.1855 13.736 47.1855 13.08ZM60.9835 8.256C59.9115 8.256 59.1115 8.64 58.5835 9.408C58.0555 10.16 57.7915 11.16 57.7915 12.408V18H54.1915V5.088H57.7915V6.792C58.2555 6.264 58.8315 5.816 59.5195 5.448C60.2235 5.08 60.9355 4.888 61.6555 4.872L61.6795 8.256H60.9835ZM67.7587 18H64.1587V0.191999H67.7587V9.336L71.7667 5.064H76.3027L71.3827 10.296L76.4947 18H72.2227L68.9347 13.056L67.7587 14.28V18ZM89.7161 16.128C88.2601 17.504 86.5481 18.192 84.5801 18.192C82.6281 18.192 81.0121 17.592 79.7321 16.392C78.4521 15.176 77.8121 13.552 77.8121 11.52C77.8121 9.488 78.4601 7.872 79.7561 6.672C81.0681 5.472 82.6121 4.872 84.3881 4.872C86.1641 4.872 87.6681 5.408 88.9001 6.48C90.1481 7.552 90.7721 9.024 90.7721 10.896V12.816H81.3641C81.4761 13.52 81.8441 14.096 82.4681 14.544C83.0921 14.992 83.7961 15.216 84.5801 15.216C85.8441 15.216 86.8841 14.792 87.7001 13.944L89.7161 16.128ZM87.1241 10.248C87.0441 9.48 86.7561 8.888 86.2601 8.472C85.7641 8.056 85.1561 7.848 84.4361 7.848C83.7321 7.848 83.0841 8.064 82.4921 8.496C81.9001 8.928 81.5561 9.512 81.4601 10.248H87.1241ZM97.6234 7.68V13.464C97.6234 13.96 97.7514 14.352 98.0074 14.64C98.2634 14.912 98.5674 15.048 98.9194 15.048C99.5914 15.048 100.159 14.744 100.623 14.136L101.967 16.656C100.847 17.68 99.6634 18.192 98.4154 18.192C97.1834 18.192 96.1354 17.784 95.2714 16.968C94.4234 16.152 93.9994 15.04 93.9994 13.632V7.68H92.4874V5.088H93.9994V1.224H97.6234V5.088H100.743V7.68H97.6234ZM115.182 16.128C113.726 17.504 112.014 18.192 110.046 18.192C108.094 18.192 106.478 17.592 105.198 16.392C103.918 15.176 103.278 13.552 103.278 11.52C103.278 9.488 103.926 7.872 105.222 6.672C106.534 5.472 108.078 4.872 109.854 4.872C111.63 4.872 113.134 5.408 114.366 6.48C115.614 7.552 116.238 9.024 116.238 10.896V12.816H106.83C106.942 13.52 107.31 14.096 107.934 14.544C108.558 14.992 109.262 15.216 110.046 15.216C111.31 15.216 112.35 14.792 113.166 13.944L115.182 16.128ZM112.59 10.248C112.51 9.48 112.222 8.888 111.726 8.472C111.23 8.056 110.622 7.848 109.902 7.848C109.198 7.848 108.55 8.064 107.958 8.496C107.366 8.928 107.022 9.512 106.926 10.248H112.59ZM125.726 8.256C124.654 8.256 123.854 8.64 123.326 9.408C122.798 10.16 122.534 11.16 122.534 12.408V18H118.934V5.088H122.534V6.792C122.998 6.264 123.574 5.816 124.262 5.448C124.966 5.08 125.678 4.888 126.398 4.872L126.422 8.256H125.726Z" fill="white"></path>
</svg>
